<!-- Generated by graphviz version 15.1.1 (20260805.0921)
 -->
<!-- Title: before Pages: 1 -->
<svg width="322pt" height="520pt"
 viewBox="0.00 0.00 322.00 520.00">
<g id="graph0" class="graph" transform="scale(1 1) rotate(0) translate(4 515.75)">
<title>before</title>
<g id="clust1" class="cluster">
<title>cluster_static</title>
<path fill="none" stroke="#c3c8d0" d="M20,-228.5C20,-228.5 150,-228.5 150,-228.5 156,-228.5 162,-234.5 162,-240.5 162,-240.5 162,-491.75 162,-491.75 162,-497.75 156,-503.75 150,-503.75 150,-503.75 20,-503.75 20,-503.75 14,-503.75 8,-497.75 8,-491.75 8,-491.75 8,-240.5 8,-240.5 8,-234.5 14,-228.5 20,-228.5"/>
<text xml:space="preserve" text-anchor="middle" x="85" y="-489.3" font-family="Apple SD Gothic Neo" font-size="11.00" fill="#5b6472">정적 계층</text>
</g>
<g id="clust2" class="cluster">
<title>cluster_llm</title>
<path fill="none" stroke="#c3c8d0" d="M153,-60C153,-60 245,-60 245,-60 251,-60 257,-66 257,-72 257,-72 257,-189.25 257,-189.25 257,-195.25 251,-201.25 245,-201.25 245,-201.25 153,-201.25 153,-201.25 147,-201.25 141,-195.25 141,-189.25 141,-189.25 141,-72 141,-72 141,-66 147,-60 153,-60"/>
<text xml:space="preserve" text-anchor="middle" x="199" y="-186.8" font-family="Apple SD Gothic Neo" font-size="11.00" fill="#5b6472">LLM 계층</text>
</g>
<!-- dump -->
<g id="node1" class="node">
<title>dump</title>
<path fill="#f4f5f7" stroke="#c3c8d0" stroke-width="1.1" d="M119.83,-473.5C119.83,-473.5 50.17,-473.5 50.17,-473.5 44.17,-473.5 38.17,-467.5 38.17,-461.5 38.17,-461.5 38.17,-449.5 38.17,-449.5 38.17,-443.5 44.17,-437.5 50.17,-437.5 50.17,-437.5 119.83,-437.5 119.83,-437.5 125.83,-437.5 131.83,-443.5 131.83,-449.5 131.83,-449.5 131.83,-461.5 131.83,-461.5 131.83,-467.5 125.83,-473.5 119.83,-473.5"/>
<text xml:space="preserve" text-anchor="middle" x="85" y="-458" font-family="Apple SD Gothic Neo" font-size="10.00">roslyn&#45;dump.json</text>
<text xml:space="preserve" text-anchor="middle" x="85" y="-446" font-family="Apple SD Gothic Neo" font-size="10.00">types · relations</text>
</g>
<!-- norm -->
<g id="node2" class="node">
<title>norm</title>
<path fill="#f4f5f7" stroke="#c3c8d0" stroke-width="1.1" d="M109.7,-406.5C109.7,-406.5 60.3,-406.5 60.3,-406.5 54.3,-406.5 48.3,-400.5 48.3,-394.5 48.3,-394.5 48.3,-382.5 48.3,-382.5 48.3,-376.5 54.3,-370.5 60.3,-370.5 60.3,-370.5 109.7,-370.5 109.7,-370.5 115.7,-370.5 121.7,-376.5 121.7,-382.5 121.7,-382.5 121.7,-394.5 121.7,-394.5 121.7,-400.5 115.7,-406.5 109.7,-406.5"/>
<text xml:space="preserve" text-anchor="middle" x="85" y="-385" font-family="Apple SD Gothic Neo" font-size="10.00">normalize.py</text>
</g>
<!-- dump&#45;&gt;norm -->
<g id="edge1" class="edge">
<title>dump&#45;&gt;norm</title>
<path fill="none" stroke="#8b93a1" d="M85,-437.08C85,-430.38 85,-422.58 85,-415.25"/>
<polygon fill="#8b93a1" stroke="#8b93a1" points="87.45,-415.48 85,-408.48 82.55,-415.48 87.45,-415.48"/>
</g>
<!-- cg -->
<g id="node3" class="node">
<title>cg</title>
<path fill="#f4f5f7" stroke="#c3c8d0" stroke-width="1.1" d="M123.96,-339.5C123.96,-339.5 46.04,-339.5 46.04,-339.5 40.04,-339.5 34.04,-333.5 34.04,-327.5 34.04,-327.5 34.04,-315.5 34.04,-315.5 34.04,-309.5 40.04,-303.5 46.04,-303.5 46.04,-303.5 123.96,-303.5 123.96,-303.5 129.96,-303.5 135.96,-309.5 135.96,-315.5 135.96,-315.5 135.96,-327.5 135.96,-327.5 135.96,-333.5 129.96,-339.5 123.96,-339.5"/>
<text xml:space="preserve" text-anchor="middle" x="85" y="-324" font-family="Apple SD Gothic Neo" font-size="10.00">codegraph.json</text>
<text xml:space="preserve" text-anchor="middle" x="85" y="-312" font-family="Apple SD Gothic Neo" font-size="10.00">231 노드 · 540 간선</text>
</g>
<!-- norm&#45;&gt;cg -->
<g id="edge2" class="edge">
<title>norm&#45;&gt;cg</title>
<path fill="none" stroke="#8b93a1" d="M85,-370.08C85,-363.38 85,-355.58 85,-348.25"/>
<polygon fill="#8b93a1" stroke="#8b93a1" points="87.45,-348.48 85,-341.48 82.55,-348.48 87.45,-348.48"/>
</g>
<!-- facts -->
<g id="node4" class="node">
<title>facts</title>
<path fill="#f4f5f7" stroke="#c3c8d0" stroke-width="1.1" d="M141.58,-272.5C141.58,-272.5 28.42,-272.5 28.42,-272.5 22.42,-272.5 16.42,-266.5 16.42,-260.5 16.42,-260.5 16.42,-248.5 16.42,-248.5 16.42,-242.5 22.42,-236.5 28.42,-236.5 28.42,-236.5 141.58,-236.5 141.58,-236.5 147.58,-236.5 153.58,-242.5 153.58,-248.5 153.58,-248.5 153.58,-260.5 153.58,-260.5 153.58,-266.5 147.58,-272.5 141.58,-272.5"/>
<text xml:space="preserve" text-anchor="middle" x="85" y="-257" font-family="Apple SD Gothic Neo" font-size="10.00">facts/*.md · ranking.json</text>
<text xml:space="preserve" text-anchor="middle" x="85" y="-245" font-family="Apple SD Gothic Neo" font-size="10.00">modules · classes · hotspot</text>
</g>
<!-- cg&#45;&gt;facts -->
<g id="edge3" class="edge">
<title>cg&#45;&gt;facts</title>
<path fill="none" stroke="#8b93a1" d="M85,-303.08C85,-296.38 85,-288.58 85,-281.25"/>
<polygon fill="#8b93a1" stroke="#8b93a1" points="87.45,-281.48 85,-274.48 82.55,-281.48 87.45,-281.48"/>
</g>
<!-- ver -->
<g id="node8" class="node">
<title>ver</title>
<path fill="#eaf5ec" stroke="#6aa06f" stroke-width="1.1" d="M234.58,-36C234.58,-36 163.42,-36 163.42,-36 157.42,-36 151.42,-30 151.42,-24 151.42,-24 151.42,-12 151.42,-12 151.42,-6 157.42,0 163.42,0 163.42,0 234.58,0 234.58,0 240.58,0 246.58,-6 246.58,-12 246.58,-12 246.58,-24 246.58,-24 246.58,-30 240.58,-36 234.58,-36"/>
<text xml:space="preserve" text-anchor="middle" x="199" y="-20.5" font-family="Apple SD Gothic Neo" font-size="10.00">verify_citations.py</text>
<text xml:space="preserve" text-anchor="middle" x="199" y="-8.5" font-family="Apple SD Gothic Neo" font-size="10.00">L1·L2·L3</text>
</g>
<!-- cg&#45;&gt;ver -->
<g id="edge8" class="edge">
<title>cg&#45;&gt;ver</title>
<path fill="none" stroke="#8b93a1" stroke-dasharray="5,2" d="M117.8,-303.16C132.52,-294.74 149.74,-283.97 164,-272.5 195.91,-246.84 194.2,-227.22 231,-209.25 243.79,-203 253.29,-212.5 262,-201.25 265.25,-197.06 262.95,-63.57 261,-60 257.01,-52.7 251.09,-46.47 244.48,-41.24"/>
<polygon fill="#8b93a1" stroke="#8b93a1" points="246.01,-39.33 238.9,-37.23 243.15,-43.3 246.01,-39.33"/>
</g>
<!-- llm -->
<g id="node6" class="node">
<title>llm</title>
<path fill="#eef2fb" stroke="#8fa4d4" stroke-width="1.1" d="M237.2,-171C237.2,-171 160.8,-171 160.8,-171 154.8,-171 148.8,-165 148.8,-159 148.8,-159 148.8,-147 148.8,-147 148.8,-141 154.8,-135 160.8,-135 160.8,-135 237.2,-135 237.2,-135 243.2,-135 249.2,-141 249.2,-147 249.2,-147 249.2,-159 249.2,-159 249.2,-165 243.2,-171 237.2,-171"/>
<text xml:space="preserve" text-anchor="middle" x="199" y="-149.5" font-family="Apple SD Gothic Neo" font-size="10.00">deep&#45;wiki 에이전트</text>
</g>
<!-- facts&#45;&gt;llm -->
<g id="edge5" class="edge">
<title>facts&#45;&gt;llm</title>
<path fill="none" stroke="#8b93a1" d="M104.86,-236.17C123.7,-219.72 152.15,-194.89 172.84,-176.84"/>
<polygon fill="#8b93a1" stroke="#8b93a1" points="174.18,-178.91 177.85,-172.46 170.96,-175.22 174.18,-178.91"/>
<text xml:space="preserve" text-anchor="middle" x="151.3" y="-211.95" font-family="Apple SD Gothic Neo" font-size="9.00">정적 재료</text>
</g>
<!-- src -->
<g id="node5" class="node">
<title>src</title>
<path fill="#fdeaea" stroke="#d9534f" stroke-width="1.6" d="M301.7,-272.5C301.7,-272.5 228.3,-272.5 228.3,-272.5 222.3,-272.5 216.3,-266.5 216.3,-260.5 216.3,-260.5 216.3,-248.5 216.3,-248.5 216.3,-242.5 222.3,-236.5 228.3,-236.5 228.3,-236.5 301.7,-236.5 301.7,-236.5 307.7,-236.5 313.7,-242.5 313.7,-248.5 313.7,-248.5 313.7,-260.5 313.7,-260.5 313.7,-266.5 307.7,-272.5 301.7,-272.5"/>
<text xml:space="preserve" text-anchor="middle" x="265" y="-257" font-family="Apple SD Gothic Neo" font-size="10.00">사용자 소스 .cs</text>
<text xml:space="preserve" text-anchor="middle" x="265" y="-245" font-family="Apple SD Gothic Neo" font-size="10.00">114 파일 · 8,456 줄</text>
</g>
<!-- src&#45;&gt;llm -->
<g id="edge6" class="edge">
<title>src&#45;&gt;llm</title>
<path fill="none" stroke="#d9534f" stroke-width="2.4" d="M253.2,-235.71C242.91,-220.19 227.84,-197.48 216.21,-179.94"/>
<polygon fill="#d9534f" stroke="#d9534f" stroke-width="2.4" points="218.4,-178.81 212.48,-174.33 214.31,-181.52 218.4,-178.81"/>
<text xml:space="preserve" text-anchor="middle" x="257.89" y="-211.95" font-family="Apple SD Gothic Neo" font-size="9.00" fill="#c0392b">전수 정독</text>
</g>
<!-- wiki -->
<g id="node7" class="node">
<title>wiki</title>
<path fill="#f4f5f7" stroke="#c3c8d0" stroke-width="1.1" d="M219.58,-104C219.58,-104 178.42,-104 178.42,-104 172.42,-104 166.42,-98 166.42,-92 166.42,-92 166.42,-80 166.42,-80 166.42,-74 172.42,-68 178.42,-68 178.42,-68 219.58,-68 219.58,-68 225.58,-68 231.58,-74 231.58,-80 231.58,-80 231.58,-92 231.58,-92 231.58,-98 225.58,-104 219.58,-104"/>
<text xml:space="preserve" text-anchor="middle" x="199" y="-88.5" font-family="Apple SD Gothic Neo" font-size="10.00">위키 10장</text>
<text xml:space="preserve" text-anchor="middle" x="199" y="-76.5" font-family="Apple SD Gothic Neo" font-size="10.00">인용 745건</text>
</g>
<!-- llm&#45;&gt;wiki -->
<g id="edge4" class="edge">
<title>llm&#45;&gt;wiki</title>
<path fill="none" stroke="#8b93a1" d="M199,-134.58C199,-127.88 199,-120.08 199,-112.75"/>
<polygon fill="#8b93a1" stroke="#8b93a1" points="201.45,-112.98 199,-105.98 196.55,-112.98 201.45,-112.98"/>
</g>
<!-- wiki&#45;&gt;ver -->
<g id="edge7" class="edge">
<title>wiki&#45;&gt;ver</title>
<path fill="none" stroke="#8b93a1" d="M199,-67.66C199,-60.59 199,-52.28 199,-44.54"/>
<polygon fill="#8b93a1" stroke="#8b93a1" points="201.45,-44.97 199,-37.97 196.55,-44.97 201.45,-44.97"/>
</g>
</g>
</svg>
